HIERARCHY
ROOT Hips
{
 OFFSET 0.000000 0.000000 0.000000
 CHANNELS 6 Xposition Yposition Zposition Yrotation Xrotation Zrotation
 JOINT Chest
 {
  OFFSET 0.000000 10.383400 0.001500
  CHANNELS 3 Yrotation Xrotation Zrotation
  JOINT Chest2
  {
   OFFSET 0.000000 10.418200 -0.003100
   CHANNELS 3 Yrotation Xrotation Zrotation
   JOINT Chest3
   {
    OFFSET 0.000000 10.375100 0.000000
    CHANNELS 3 Yrotation Xrotation Zrotation
    JOINT Chest4
    {
     OFFSET 0.000000 10.364600 0.000000
     CHANNELS 3 Yrotation Xrotation Zrotation
     JOINT Neck
     {
      OFFSET 0.000000 15.642200 0.000000
      CHANNELS 3 Yrotation Xrotation Zrotation
      JOINT Head
      {
       OFFSET 0.000000 9.697300 -0.006500
       CHANNELS 3 Yrotation Xrotation Zrotation
       End Site
       {
        OFFSET 0.000000 18.492200 -0.003400
       }
      }
     }
     JOINT RightCollar
     {
      OFFSET -3.166800 10.349300 0.000000
      CHANNELS 3 Yrotation Xrotation Zrotation
      JOINT RightShoulder
      {
       OFFSET -14.729700 0.000000 0.000000
       CHANNELS 3 Yrotation Xrotation Zrotation
       JOINT RightElbow
       {
        OFFSET 0.000000 -32.224300 0.000000
        CHANNELS 3 Yrotation Xrotation Zrotation
        JOINT RightWrist
        {
         OFFSET 0.000000 -26.084100 0.000000
         CHANNELS 3 Yrotation Xrotation Zrotation
         End Site
         {
          OFFSET 0.000000 -19.319400 0.000000
         }
        }
       }
      }
     }
     JOINT LeftCollar
     {
      OFFSET 3.166800 10.349300 0.000000
      CHANNELS 3 Yrotation Xrotation Zrotation
      JOINT LeftShoulder
      {
       OFFSET 14.729700 0.000000 0.000000
       CHANNELS 3 Yrotation Xrotation Zrotation
       JOINT LeftElbow
       {
        OFFSET 0.000000 -32.224300 0.000000
        CHANNELS 3 Yrotation Xrotation Zrotation
        JOINT LeftWrist
        {
         OFFSET 0.000000 -26.084100 0.000000
         CHANNELS 3 Yrotation Xrotation Zrotation
         End Site
         {
          OFFSET 0.000000 -19.319400 0.000000
         }
        }
       }
      }
     }
    }
   }
  }
 }
 JOINT RightHip
 {
  OFFSET -8.428900 -0.007500 -0.000800
  CHANNELS 3 Yrotation Xrotation Zrotation
  JOINT RightKnee
  {
   OFFSET 0.000000 -43.834600 0.000700
   CHANNELS 3 Yrotation Xrotation Zrotation
   JOINT RightAnkle
   {
    OFFSET 0.000000 -42.757000 0.001200
    CHANNELS 3 Yrotation Xrotation Zrotation
    JOINT RightToe
    {
     OFFSET 0.000000 -6.946900 15.649300
     CHANNELS 3 Yrotation Xrotation Zrotation
     End Site
     {
      OFFSET 0.000000 -1.580800 6.825800
     }
    }
   }
  }
 }
 JOINT LeftHip
 {
  OFFSET 8.428900 -0.007500 -0.000800
  CHANNELS 3 Yrotation Xrotation Zrotation
  JOINT LeftKnee
  {
   OFFSET 0.000000 -43.834600 0.000700
   CHANNELS 3 Yrotation Xrotation Zrotation
   JOINT LeftAnkle
   {
    OFFSET 0.000000 -42.757000 0.001200
    CHANNELS 3 Yrotation Xrotation Zrotation
    JOINT LeftToe
    {
     OFFSET 0.000000 -6.946900 15.649300
     CHANNELS 3 Yrotation Xrotation Zrotation
     End Site
     {
      OFFSET 0.000000 -1.580800 6.825800
     }
    }
   }
  }
 }
}
MOTION
Frames: 6
Frame Time: 0.008333
-2.634756 126.563171 -4.072330 -168.719956 -23.312404 -13.084574 5.201524 16.034852 6.511221 0.460405 1.707563 0.667129 0.785427 2.928669 1.064987 4.384280 14.020895 5.625695 -11.474858 20.483138 5.175751 -14.262401 -2.868187 8.577382 6.197375 -7.486696 -2.432354 35.265355 -22.860497 -11.305253 -151.789886 -41.799977 -176.223446 4.529107 -25.367450 -36.452158 -16.358263 -0.457295 7.014449 -13.648936 -25.265883 0.177671 84.774502 -28.134297 -148.087678 6.362111 16.515722 -15.402068 2.724587 -40.965448 2.381302 -51.719291 81.671103 -45.214139 -7.165142 -15.158258 10.435409 -0.001655 0.001899 -0.000735 -12.563212 -49.172791 -2.422406 107.019777 79.221809 113.628899 4.477720 -8.215411 -4.135641 0.020319 0.010426 0.009021
-2.642688 126.560594 -4.069779 -168.626227 -23.265413 -13.118359 5.093985 15.951437 6.531243 0.447830 1.700059 0.677341 0.771825 2.907335 1.069731 4.333277 13.970370 5.661774 -11.562340 20.510734 5.122949 -14.354227 -2.828273 8.539945 6.316042 -7.353888 -2.543293 35.474051 -22.829741 -11.419103 -151.880944 -41.747883 -176.213965 4.608197 -25.470830 -36.673563 -16.281774 -0.415559 6.892482 -13.647783 -25.267591 0.144727 84.819614 -28.106430 -148.106117 6.349265 16.732714 -15.400638 2.777077 -40.985225 2.301039 -51.690287 81.669679 -45.117108 -7.207522 -15.142695 10.467825 -0.002882 -0.001129 -0.001279 -12.794652 -49.226527 -2.372062 107.114909 79.193270 113.701776 4.535597 -8.167737 -4.168248 -0.001709 0.005737 -0.000759
-2.652629 126.558938 -4.069773 -168.585925 -23.250854 -13.124437 5.023209 15.850319 6.589442 0.450666 1.739878 0.642576 0.760207 2.888883 1.075913 4.290138 13.924294 5.702737 -11.643367 20.515460 5.071674 -14.438696 -2.816307 8.502724 6.420194 -7.236208 -2.657029 35.651236 -22.794003 -11.518199 -151.972213 -41.678019 -176.202506 4.690009 -25.571321 -36.905801 -16.235042 -0.390928 6.778445 -13.694466 -25.274788 0.098199 84.864564 -28.114434 -148.069053 6.299936 16.915314 -15.394010 2.895153 -40.989243 2.210413 -51.698455 81.666036 -45.057913 -7.241971 -15.114642 10.495870 -0.004718 0.002519 -0.002094 -12.932773 -49.249258 -2.341912 107.183920 79.175414 113.753018 4.585306 -8.110927 -4.143762 -0.029882 0.008974 -0.013267
-2.670818 126.555795 -4.069587 -168.559085 -23.248452 -13.080672 4.975409 15.814244 6.563875 0.444591 1.730089 0.646419 0.757970 2.907038 1.063638 4.250005 13.848476 5.760298 -11.721839 20.500667 5.025762 -14.521689 -2.827358 8.471216 6.607725 -7.196526 -2.826203 35.662476 -22.737036 -11.505240 -152.053803 -41.601411 -176.184434 4.776853 -25.659879 -37.130047 -16.207564 -0.379974 6.672231 -13.792923 -25.308182 0.055960 84.943571 -28.140903 -148.000439 6.259613 17.090595 -15.364764 3.067234 -40.984776 2.063330 -51.746882 81.660714 -45.043886 -7.284703 -15.102076 10.541855 -0.001875 0.011760 -0.000833 -12.998990 -49.267499 -2.378425 107.231233 79.150304 113.763900 4.693240 -8.071165 -4.075228 -0.136462 0.020699 -0.060595
-2.673525 126.554570 -4.068550 -168.525825 -23.234471 -13.125138 4.946825 15.783441 6.608698 0.432289 1.700832 0.656656 0.745124 2.875950 1.080173 4.213044 13.833180 5.782964 -11.799605 20.471323 4.984817 -14.605357 -2.855392 8.445464 6.706363 -7.117198 -2.924200 35.752287 -22.713308 -11.541354 -152.113758 -41.532579 -176.161283 4.866509 -25.731281 -37.334637 -16.178268 -0.375576 6.571780 -13.926993 -25.335509 0.040556 85.082085 -28.094945 -148.109965 6.265194 17.320221 -15.159381 3.154066 -40.994400 2.035959 -51.810166 81.645915 -45.046702 -7.312238 -15.075200 10.587782 -0.006065 0.007186 -0.002693 -13.147153 -49.270639 -2.326546 107.277061 79.151679 113.845820 5.044595 -8.016845 -4.235300 -0.094945 0.022758 -0.042162
-2.668252 126.554831 -4.068604 -168.508240 -23.230574 -13.208379 4.946026 15.756200 6.697066 0.406327 1.673679 0.654977 0.729945 2.848074 1.090704 4.172568 13.823142 5.797781 -11.877576 20.431505 4.942583 -14.689039 -2.895979 8.418371 6.818111 -7.047242 -3.015289 35.813890 -22.714182 -11.549164 -152.147777 -41.479615 -176.135084 4.953403 -25.777933 -37.518413 -16.119086 -0.335472 6.491046 -14.092246 -25.417233 0.047964 85.181323 -28.073341 -148.149907 6.250103 17.504418 -15.007718 3.215255 -41.000278 2.069886 -51.908992 81.624967 -45.077686 -7.327727 -15.047504 10.621269 -0.003735 -0.000040 -0.001658 -13.321614 -49.254757 -2.233116 107.225994 79.105458 113.763203 5.790192 -7.942506 -4.506926 0.008103 0.018610 0.003598
